# AST/ASF file generated using VICON BodyLanguage
# -----------------------------------------------
:version 1.10
:name VICON
:units
  mass 1.0
  length 0.45
  angle deg
:documentation
   .ast/.asf automatically generated from VICON data using
   VICON BodyBuilder and BodyLanguage model FoxedUp or BRILLIANT.MOD
:root
   order TX TY TZ RX RY RZ
   axis XYZ
   position 0 0 0  
   orientation 0 0 0 
:bonedata
  begin
     id 1 
     name lhipjoint
     direction 0.650112 -0.723553 0.232005 
     length 2.45805 
     axis 0 0 0  XYZ
  end
  begin
     id 2 
     name lfemur
     direction 0.34202 -0.939693 0  
     length 7.00073  
     axis 0 0 20  XYZ
    dof rx ry rz
    limits (-160.0 20.0)
           (-70.0 70.0)
           (-60.0 70.0)
  end
  begin
     id 3 
     name ltibia
     direction 0.34202 -0.939693 0   
     length 7.8748   
     axis 0 0 20   XYZ
    dof rx
    limits (-10.0 170.0)
  end
  begin
     id 4 
     name lfoot
     direction 0.0542825 -0.14914 0.987325   
     length 1.75978   
     axis -90 7.62852e-016 20   XYZ
    dof rx rz
    limits (-45.0 90.0)
           (-70.0 20.0)
  end
  begin
     id 5 
     name ltoes
     direction 1.53509e-011 -4.21906e-011 1   
     length 0.893912   
     axis -90 7.62852e-016 20   XYZ
    dof rx
    limits (-90.0 20.0)
  end
  begin
     id 6 
     name rhipjoint
     direction -0.637897 -0.733345 0.235145   
     length 2.42522  
     axis 0 0 0  XYZ 
  end
  begin
     id 7 
     name rfemur
     direction -0.34202 -0.939693 0   
     length 7.02549   
     axis 0 0 -20   XYZ
    dof rx ry rz
    limits (-160.0 20.0)
           (-70.0 70.0)
           (-70.0 60.0)
  end
  begin
     id 8 
     name rtibia
     direction -0.34202 -0.939693 0   
     length 7.71512   
     axis 0 0 -20   XYZ
    dof rx
    limits (-10.0 170.0)
 end
 begin
     id 9 
     name rfoot
     direction -0.0822618 -0.226012 0.970645   
     length 1.90014  
     axis -90 -7.62852e-016 -20   XYZ
    dof rx rz
    limits (-45.0 90.0)
           (-20.0 70.0)
  end
  begin
     id 10 
     name rtoes
     direction -1.53542e-011 -4.21872e-011 1   
     length 0.957341   
     axis -90 -7.62852e-016 -20   XYZ
    dof rx
    limits (-90.0 20.0)
  end
  begin
     id 11 
     name lowerback
     direction -0.0022947 0.999774 -0.0211557   
     length 1.89909   
     axis 0 0 0   XYZ
    dof rx ry rz
    limits (-20.0 45.0)
           (-30.0 30.0)
           (-30.0 30.0)
  end
  begin
     id 12 
     name upperback
     direction 0.0107737 0.998635 0.0511027   
     length 1.8853   
     axis 0 0 0   XYZ
    dof rx ry rz
    limits (-20.0 45.0)
           (-30.0 30.0)
           (-30.0 30.0)
  end
  begin
     id 13 
     name thorax
     direction 0.011824 0.998136 0.0598754   
     length 1.88911   
     axis 0 0 0   XYZ
    dof rx ry rz
    limits (-20.0 45.0)
           (-30.0 30.0)
           (-30.0 30.0)
  end
  begin
     id 14 
     name lowerneck
     direction -0.0685355 0.990319 0.120714   
     length 1.91222   
     axis 0 0 0   XYZ
    dof rx ry rz
    limits (-20.0 45.0)
           (-30.0 30.0)
           (-30.0 30.0)
  end
  begin
     id 15 
     name upperneck
     direction 0.0886204 0.955665 -0.280805   
     length 1.92526   
     axis 0 0 0   XYZ
    dof rx ry rz
    limits (-20.0 45.0)
           (-30.0 30.0)
           (-30.0 30.0)
  end
  begin
     id 16
     name head
     direction 0.0233423 0.993502 -0.111393  
     length 1.96056  
     axis 0 0 0   XYZ
    dof rx ry rz
    limits (-20.0 45.0)
           (-30.0 30.0)
           (-30.0 30.0)
  end
  begin
     id 17 
     name lclavicle
     direction 0.941873 0.32922 0.0670041  
     length 3.31705  
     axis 0 0 0   XYZ
    dof ry rz
    limits (-20.0 10.0)
           (0.0 20.0)
  end
  begin
     id 18 
     name lhumerus
     direction 1 -4.4898e-011 3.38707e-028   
     length 5.29277   
     axis 180 -30 -90   XYZ
    dof rx ry rz
    limits (-60.0 90.0)
           (-90.0 90.0)
           (-90.0 90.0)
  end
  begin
     id 19
     name lradius
     direction 1 -4.48952e-011 1.63213e-028   
     length 2.85226   
     axis 180 -30 -90   XYZ
    dof rx
    limits (-10.0 170.0)
  end
  begin
     id 20
     name lwrist
     direction 1 -4.49001e-011 1.27856e-027   
     length 1.42613   
     axis -1.61767e-015 90 90   XYZ
    dof ry
    limits (-180.0 0.0)
 end
  begin
     id 21 
     name lhand
     direction 1 -4.48976e-011 2.55931e-027   
     length 0.602097   
     axis -1.63363e-015 90 90   XYZ
    dof rx rz
    limits (-90.0 90.0)
           (-45.0 45.0)
  end
  begin
     id 22 
     name lfingers
     direction 1 -4.48986e-011 5.11684e-027   
     length 0.485426   
     axis -3.26723e-015 90 90   XYZ
    dof rx
    limits (0.0 90.0)
  end
  begin
     id 23
     name lthumb
     direction 0.707107 -6.34915e-011 0.707107   
     length 0.696978   
     axis -90 45 -2.25915e-014   XYZ
    dof rx rz
    limits (-45.0 45.0)
           (-45.0 45.0)
  end
  begin
     id 24 
     name rclavicle
     direction -0.939974 0.327078 0.0973096   
     length 3.10337  
     axis 0 0 0   XYZ 
    dof ry rz
    limits (-10.0 20.0)
           (-20.0 0.0)
  end
  begin
     id 25 
     name rhumerus
     direction -1 -4.48975e-011 1.83745e-027  
     length 5.13304   
     axis 180 30 90   XYZ
    dof rx ry rz
    limits (-90.0 60.0)
           (-90.0 90.0)
           (-90.0 90.0)
  end
  begin
     id 26 
     name rradius
     direction -1 -4.48977e-011 7.1775e-029   
     length 2.74305   
     axis 180 30 90   XYZ
    dof rx
    limits (-10.0 170.0)
  end
  begin
     id 27 
     name rwrist
     direction -1 -4.48977e-011 1.27963e-027   
     length 1.37152   
     axis -1.61767e-015 -90 -90   XYZ
    dof ry
    limits (-180.0 0.0)
  end
  begin
     id 28
     name rhand
     direction -1 -4.4888e-011 2.56782e-027   
     length 0.767976   
     axis -1.63363e-015 -90 -90   XYZ
    dof rx rz
    limits (-90.0 90.0)
           (-45.0 45.0)
  end
  begin
     id 29
     name rfingers
     direction -1 -4.48947e-011 5.12384e-027   
     length 0.619162   
     axis -3.26723e-015 -90 -90   XYZ
    dof rx
    limits (0.0 90.0)
  end
  begin
     id 30
     name rthumb
     direction -0.707107 -6.34857e-011 0.707107   
     length 0.888997   
     axis -90 -45 2.25915e-014   XYZ
    dof rx rz
    limits (-45.0 45.0)
           (-45.0 45.0)
  end
:hierarchy
  begin
    root lhipjoint rhipjoint lowerback
    lhipjoint lfemur
    lfemur ltibia
    ltibia lfoot
    lfoot ltoes
    rhipjoint rfemur
    rfemur rtibia
    rtibia rfoot
    rfoot rtoes
    lowerback upperback
    upperback thorax
    thorax lowerneck lclavicle rclavicle
    lowerneck upperneck
    upperneck head
    lclavicle lhumerus
    lhumerus lradius
    lradius lwrist
    lwrist lhand lthumb
    lhand lfingers
    rclavicle rhumerus
    rhumerus rradius
    rradius rwrist
    rwrist rhand rthumb
    rhand rfingers
  end

#!OML:ASF F:\VICON\USERDATA\INSTALL\rory3\rory3.ASF
:FULLY-SPECIFIED
:DEGREES
1480
root 0.431435 17.4022 0.724 3.48272 4.13053 -1.41035
lowerback -2.3762 2.65664 -3.56308
upperback -4.09469 3.592 1.0865
thorax -3.18108 1.92807 3.08837
lowerneck 0.649591 -18.891 -26.0302
upperneck 14.2302 -29.0578 21.404
head 11.6833 -14.1366 7.09367
rclavicle 1.90461e-014 -3.57812e-015
rhumerus 0.645105 -31.8107 -80.6574
rradius 65.3299
rwrist -14.3711
rhand -19.6253 2.25854
rfingers 7.12502
rthumb 6.70154 -27.6154
lclavicle 1.90461e-014 -3.57812e-015
lhumerus -32.7252 17.3703 79.5194
lradius 13.7844
lwrist -28.3125
lhand 4.92252 19.9941
lfingers 7.12502
lthumb 30.2961 47.5274
rfemur 0 0 0
rtibia 0
rfoot 0 0
rtoes 0
lfemur -6.6903 -16.9185 -17.3349
ltibia 18.8912
lfoot -15.3105 8.47634
ltoes -14.6002
1481
root 0.433696 17.4039 0.719645 3.49877 3.99517 -1.37491
lowerback -2.343 2.65116 -3.48824
upperback -4.1029 3.58233 1.055
thorax -3.2002 1.92067 3.01229
lowerneck 0.613652 -18.8544 -25.9177
upperneck 14.3392 -28.9997 21.3165
head 11.6791 -14.106 7.06593
rclavicle -2.17421e-014 -2.08724e-015
rhumerus 0.57594 -31.666 -80.7476
rradius 65.5351
rwrist -14.303
rhand -19.4459 2.347
rfingers 7.12502
rthumb 6.87469 -27.5214
lclavicle -2.17421e-014 -2.08724e-015
lhumerus -32.7702 17.4058 79.4076
lradius 13.7689
lwrist -28.3937
lhand 4.78308 19.817
lfingers 7.12502
lthumb 30.163 47.3746
rfemur 0 0 0
rtibia 0
rfoot 0 0
rtoes 0
lfemur -6.69222 -16.8461 -17.393
ltibia 18.9067
lfoot -15.3285 8.53929
ltoes -14.613
1482
root 0.435471 17.405 0.713185 3.53686 3.88292 -1.407
lowerback -2.33038 2.63154 -3.36343
upperback -4.10272 3.55538 1.06289
thorax -3.19698 1.90335 2.95057
lowerneck 0.856157 -18.7357 -25.9145
upperneck 14.0375 -28.871 21.5343
head 11.5328 -14.0635 7.2029
rclavicle 8.83971e-015 4.07509e-015
rhumerus 0.619841 -31.4631 -80.8121
rradius 65.6474
rwrist -14.1208
rhand -19.2142 2.25297
rfingers 7.12502
rthumb 7.09838 -27.608
lclavicle 8.83971e-015 4.07509e-015
lhumerus -32.8194 17.4952 79.3377
lradius 13.8182
lwrist -28.4118
lhand 4.53526 19.7862
lfingers 7.12502
lthumb 29.9266 47.3867
rfemur 0 0 0
rtibia 0
rfoot 0 0
rtoes 0
lfemur -6.74788 -16.7929 -17.3589
ltibia 18.9192
lfoot -15.2844 8.64642
ltoes -14.7701
1483
root 0.437247 17.4064 0.706071 3.55741 3.76884 -1.50966
lowerback -2.28808 2.62411 -3.17232
upperback -4.09387 3.54411 1.08701
thorax -3.19943 1.89206 2.86712
lowerneck 1.13091 -18.5999 -25.9303
upperneck 13.6177 -28.7268 21.8645
head 11.3594 -14.0145 7.38792
rclavicle -1.7754e-014 1.88845e-015
rhumerus 0.609119 -31.2737 -80.8727
rradius 65.8403
rwrist -13.9595
rhand -19.188 2.2017
rfingers 7.12502
rthumb 7.1237 -27.6584
lclavicle -1.7754e-014 1.88845e-015
lhumerus -32.7568 17.582 79.3106
lradius 13.7756
lwrist -28.4566
lhand 4.51218 19.8674
lfingers 7.12502
lthumb 29.9046 47.4719
rfemur 0 0 0
rtibia 0
rfoot 0 0
rtoes 0
lfemur -6.77789 -16.7638 -17.2454
ltibia 18.9003
lfoot -15.2741 8.70759
ltoes -14.494
1484
root 0.437043 17.4078 0.70134 3.57706 3.65928 -1.54304
lowerback -2.2416 2.60759 -3.09938
upperback -4.09516 3.52093 1.10573
thorax -3.22154 1.87885 2.84369
lowerneck 0.758988 -18.6261 -25.8203
upperneck 14.0672 -28.7163 21.614
head 11.5224 -13.9793 7.25777
rclavicle -9.10682e-015 3.18055e-015
rhumerus 0.53187 -31.2116 -80.975
rradius 66.0914
rwrist -13.5264
rhand -18.8382 1.97696
rfingers 7.12502
rthumb 7.46133 -27.8715
lclavicle -9.10682e-015 3.18055e-015
lhumerus -32.7235 17.669 79.2676
lradius 13.7338
lwrist -28.4303
lhand 4.53036 19.9525
lfingers 7.12502
lthumb 29.9219 47.5539
rfemur 0 0 0
rtibia 0
rfoot 0 0
rtoes 0
lfemur -6.78296 -16.6952 -17.2018
ltibia 18.8631
lfoot -15.2434 8.72062
ltoes -14.4328
1485
root 0.437473 17.4085 0.699216 3.55772 3.53247 -1.47019
lowerback -2.18591 2.58308 -3.12874
upperback -4.0694 3.48659 1.10288
thorax -3.22522 1.86208 2.8556
lowerneck 0.331441 -18.6819 -25.6005
upperneck 14.5357 -28.7012 21.204
head 11.6518 -13.9402 7.0539
rclavicle 3.926e-015 1.32689e-014
rhumerus 0.521739 -31.1594 -81.135
rradius 66.333
rwrist -13.0618
rhand -18.3318 1.70629
rfingers 7.12502
rthumb 7.9501 -28.1242
lclavicle 3.926e-015 1.32689e-014
lhumerus -32.7146 17.7892 79.214
lradius 13.7296
lwrist -28.4742
lhand 4.52858 19.8471
lfingers 7.12502
lthumb 29.9202 47.4488
rfemur 0 0 0
rtibia 0
rfoot 0 0
rtoes 0
lfemur -6.71502 -16.6384 -17.3062
ltibia 18.815
lfoot -15.2375 8.77791
ltoes -14.3603
1486
root 0.438369 17.4088 0.695136 3.56518 3.41965 -1.39664
lowerback -2.13576 2.55343 -3.16326
upperback -4.06326 3.44553 1.10214
thorax -3.24615 1.84275 2.87243
lowerneck 0.303328 -18.6211 -25.4774
upperneck 14.5027 -28.5871 21.1517
head 11.5841 -13.8851 7.05178
rclavicle -6.58909e-014 -8.05078e-015
rhumerus 0.445904 -30.828 -81.1282
rradius 66.437
rwrist -12.9409
rhand -18.4329 1.87577
rfingers 7.12502
rthumb 7.85256 -27.9584
lclavicle -6.58909e-014 -8.05078e-015
lhumerus -32.7479 17.9131 79.1671
lradius 13.7871
lwrist -28.5797
lhand 4.54092 19.9006
lfingers 7.12502
lthumb 29.932 47.5002
rfemur 0 0 0
rtibia 0
rfoot 0 0
rtoes 0
lfemur -6.67127 -16.6666 -17.4052
ltibia 18.741
lfoot -15.2617 8.86171
ltoes -13.6384
1487
root 0.438318 17.4095 0.689156 3.60012 3.32778 -1.35865
lowerback -2.13749 2.51914 -3.1722
upperback -4.03928 3.40035 1.12351
thorax -3.21876 1.82001 2.90096
lowerneck 0.284964 -18.5404 -25.4466
upperneck 14.4402 -28.4637 21.2055
head 11.5382 -13.826 7.10085
rclavicle 2.62054e-014 1.56543e-014
rhumerus 0.352967 -30.405 -81.0303
rradius 66.5153
rwrist -12.94
rhand -18.6636 2.04352
rfingers 7.12502
rthumb 7.62989 -27.7989
lclavicle 2.62054e-014 1.56543e-014
lhumerus -32.7327 18.0395 79.1396
lradius 13.8813
lwrist -28.5863
lhand 4.62302 20.1393
lfingers 7.12502
lthumb 30.0103 47.7247
rfemur 0 0 0
rtibia 0
rfoot 0 0
rtoes 0
lfemur -6.66848 -16.6454 -17.4418
ltibia 18.6561
lfoot -15.1848 8.9106
ltoes -13.4411
1488
root 0.437893 17.4098 0.684468 3.62992 3.1873 -1.32593
lowerback -2.14758 2.50727 -3.173
upperback -4.01766 3.3847 1.12078
thorax -3.18926 1.81129 2.89995
lowerneck 0.582748 -18.3698 -25.4368
upperneck 13.9821 -28.2701 21.554
head 11.3319 -13.7546 7.3047
rclavicle -4.12043e-014 -1.49089e-014
rhumerus 0.254441 -30.1219 -80.9883
rradius 66.6483
rwrist -12.7448
rhand -18.5622 2.10968
rfingers 7.12502
rthumb 7.72776 -27.7291
lclavicle -4.12043e-014 -1.49089e-014
lhumerus -32.7655 18.1066 79.0563
lradius 14.0658
lwrist -28.4932
lhand 4.743 20.0301
lfingers 7.12502
lthumb 30.1248 47.5947
rfemur 0 0 0
rtibia 0
rfoot 0 0
rtoes 0
lfemur -6.66633 -16.5566 -17.4857
ltibia 18.6155
lfoot -15.1697 9.02962
ltoes -13.8782
1489
root 0.437691 17.4108 0.680525 3.62846 3.06684 -1.25862
lowerback -2.13456 2.49393 -3.22412
upperback -3.97817 3.36659 1.11818
thorax -3.15724 1.80253 2.92656
lowerneck 0.78464 -18.2297 -25.3805
upperneck 13.567 -28.0903 21.831
head 11.1416 -13.6824 7.4635
rclavicle -1.56574e-014 -5.86415e-015
rhumerus 0.093092 -29.8384 -80.9159
rradius 66.8378
rwrist -12.6296
rhand -18.5426 2.26728
rfingers 7.12502
rthumb 7.74664 -27.5708
lclavicle -1.56574e-014 -5.86415e-015
lhumerus -32.7556 18.1807 79.0181
lradius 14.1814
lwrist -28.4559
lhand 4.7536 19.5044
lfingers 7.12502
lthumb 30.1349 47.0671
rfemur 0 0 0
rtibia 0
rfoot 0 0
rtoes 0
lfemur -6.65712 -16.5081 -17.575
ltibia 18.6225
lfoot -15.1863 9.13199
ltoes -14.1844
1490
root 0.437062 17.4109 0.676883 3.63558 3.06278 -1.32759
lowerback -2.1244 2.44896 -3.14105
upperback -3.94417 3.3075 1.17117
thorax -3.12116 1.77033 2.9362
lowerneck 0.313389 -18.2604 -25.2631
upperneck 14.0184 -28.0504 21.5231
head 11.3035 -13.6284 7.31028
rclavicle 4.47887e-015 3.47873e-016
rhumerus -0.109852 -29.5092 -80.8534
rradius 67.0241
rwrist -12.8
rhand -18.6255 2.54436
rfingers 7.12502
rthumb 7.66658 -27.2967
lclavicle 4.47887e-015 3.47873e-016
lhumerus -32.6726 18.2905 79.0517
lradius 14.1405
lwrist -28.533
lhand 4.67112 19.4282
lfingers 7.12502
lthumb 30.0562 47.0053
rfemur 0 0 0
rtibia 0
rfoot 0 0
rtoes 0
lfemur -6.69162 -16.5139 -17.4868
ltibia 18.6356
lfoot -15.172 9.16549
ltoes -14.4448
1491
root 0.439153 17.4106 0.672549 3.61562 3.08794 -1.43745
lowerback -2.04728 2.39969 -2.95922
upperback -3.92231 3.24066 1.22429
thorax -3.12876 1.73212 2.88739
lowerneck -0.112942 -18.2609 -25.2004
upperneck 14.435 -27.9882 21.2981
head 11.4655 -13.5679 7.20376
rclavicle 2.46648e-014 1.2511e-014
rhumerus -0.35933 -29.122 -80.7191
rradius 67.1408
rwrist -12.9428
rhand -18.6764 2.55458
rfingers 7.12502
rthumb 7.61753 -27.2882
lclavicle 2.46648e-014 1.2511e-014
lhumerus -32.6425 18.3924 79.0707
lradius 14.1817
lwrist -28.643
lhand 4.65394 19.6009
lfingers 7.12502
lthumb 30.0398 47.181
rfemur 0 0 0
rtibia 0
rfoot 0 0
rtoes 0
lfemur -6.69921 -16.548 -17.3685
ltibia 18.6498
lfoot -15.1376 9.17566
ltoes -14.7289
1492
root 0.439456 17.411 0.667503 3.60833 3.02566 -1.4374
lowerback -1.96345 2.34763 -2.92936
upperback -3.90704 3.17037 1.28103
thorax -3.15647 1.69725 2.9269
lowerneck -0.253266 -18.1554 -25.2603
upperneck 14.4785 -27.812 21.324
head 11.4768 -13.4793 7.25698
rclavicle -3.16192e-014 -1.60643e-014
rhumerus -0.640889 -28.6567 -80.5182
rradius 67.2081
rwrist -12.8731
rhand -18.4316 2.22161
rfingers 7.12502
rthumb 7.85375 -27.6125
lclavicle -3.16192e-014 -1.60643e-014
lhumerus -32.7076 18.5707 79.0563
lradius 14.3066
lwrist -28.7613
lhand 4.58197 19.6519
lfingers 7.12502
lthumb 29.9712 47.2444
rfemur 0 0 0
rtibia 0
rfoot 0 0
rtoes 0
lfemur -6.71418 -16.54 -17.3752
ltibia 18.6837
lfoot -15.162 9.20074
ltoes -14.3371
1493
root 0.437992 17.4121 0.662916 3.64718 2.92679 -1.43633
lowerback -1.91116 2.31588 -2.89254
upperback -3.90785 3.12682 1.29064
thorax -3.18185 1.67486 2.91458
lowerneck -0.411434 -18.0805 -25.1345
upperneck 14.5179 -27.6607 21.2569
head 11.4481 -13.3966 7.24634
rclavicle -2.75239e-014 -9.16894e-015
rhumerus -0.97195 -28.2754 -80.4035
rradius 67.3022
rwrist -12.7398
rhand -18.1819 2.12813
rfingers 7.12502
rthumb 8.09481 -27.6968
lclavicle -2.75239e-014 -9.16894e-015
lhumerus -32.8036 18.6592 78.9545
lradius 14.5214
lwrist -28.8089
lhand 4.5618 19.8564
lfingers 7.12502
lthumb 29.9519 47.4524
rfemur 0 0 0
rtibia 0
rfoot 0 0
rtoes 0
lfemur -6.75299 -16.5194 -17.3661
ltibia 18.6781
lfoot -15.1592 9.29451
ltoes -14.2595
1494
root 0.436969 17.413 0.661248 3.64404 2.87922 -1.47238
lowerback -1.86086 2.33806 -2.75945
upperback -3.92298 3.15325 1.21386
thorax -3.21523 1.6832 2.75788
lowerneck -0.536816 -18.047 -24.863
upperneck 14.6515 -27.6062 21.1805
head 11.449 -13.3521 7.19363
rclavicle -2.80877e-014 -1.12624e-014
rhumerus -1.52493 -28.118 -80.2555
rradius 67.4565
rwrist -12.663
rhand -18.1727 2.28605
rfingers 7.12502
rthumb 8.10365 -27.5386
lclavicle -2.80877e-014 -1.12624e-014
lhumerus -32.8998 18.4701 78.8095
lradius 14.7212
lwrist -28.8184
lhand 4.61132 19.7749
lfingers 7.12502
lthumb 29.9992 47.3624
rfemur 0 0 0
rtibia 0
rfoot 0 0
rtoes 0
lfemur -6.72447 -16.5191 -17.3324
ltibia 18.6468
lfoot -15.0769 9.38751
ltoes -14.5597
1495
root 0.43456 17.4129 0.659047 3.63985 2.77499 -1.43833
lowerback -1.80339 2.39651 -2.7478
upperback -3.94308 3.22809 1.14391
thorax -3.26877 1.71991 2.67476
lowerneck -0.735419 -18.036 -24.7088
upperneck 14.8937 -27.5844 21.0938
head 11.5292 -13.3203 7.13589
rclavicle -4.35338e-014 -9.11925e-015
rhumerus -2.15622 -27.9305 -80.0143
rradius 67.5212
rwrist -12.309
rhand -18.1148 2.49718
rfingers 7.12502
rthumb 8.15957 -27.3253
lclavicle -4.35338e-014 -9.11925e-015
lhumerus -33.0733 18.238 78.7181
lradius 15.0202
lwrist -28.8461
lhand 4.79263 19.4435
lfingers 7.12502
lthumb 30.1722 46.9995
rfemur 0 0 0
rtibia 0
rfoot 0 0
rtoes 0
lfemur -6.6829 -16.4756 -17.3755
ltibia 18.609
lfoot -15.0529 9.39238
ltoes -14.1715
